<mxfile host="65bd71144e">
    <diagram id="qN0PBMXvl69ToxzrPlfz" name="PÃ¡gina-1">
        <mxGraphModel dx="804" dy="459" grid="1" gridSize="10" guides="1" tooltips="1" connect="1" arrows="1" fold="1" page="1" pageScale="1" pageWidth="827" pageHeight="1169" math="0" shadow="0">
            <root>
                <mxCell id="0"/>
                <mxCell id="1" parent="0"/>
                <mxCell id="22" style="edgeStyle=none;html=1;entryX=0.5;entryY=0;entryDx=0;entryDy=0;" parent="1" source="2" target="6" edge="1">
                    <mxGeometry relative="1" as="geometry"/>
                </mxCell>
                <mxCell id="2" value="Inicio" style="ellipse;whiteSpace=wrap;html=1;fontSize=19;gradientColor=#190033;fillColor=#006666;" parent="1" vertex="1">
                    <mxGeometry x="354" y="110" width="120" height="80" as="geometry"/>
                </mxCell>
                <mxCell id="3" value="Fin" style="ellipse;whiteSpace=wrap;html=1;fontSize=19;gradientColor=#006666;fillColor=#190033;" parent="1" vertex="1">
                    <mxGeometry x="210" y="1100" width="120" height="80" as="geometry"/>
                </mxCell>
                <mxCell id="32" style="edgeStyle=none;html=1;entryX=0.5;entryY=0;entryDx=0;entryDy=0;" parent="1" source="6" target="31" edge="1">
                    <mxGeometry relative="1" as="geometry">
                        <mxPoint x="415.2226804123711" y="380.87113402061846" as="targetPoint"/>
                    </mxGeometry>
                </mxCell>
                <mxCell id="6" value="n" style="shape=parallelogram;perimeter=parallelogramPerimeter;whiteSpace=wrap;html=1;fixedSize=1;fontSize=19;fillColor=#330066;rounded=0;gradientColor=#000099;" parent="1" vertex="1">
                    <mxGeometry x="354" y="250" width="120" height="60" as="geometry"/>
                </mxCell>
                <mxCell id="14" style="edgeStyle=none;html=1;fontSize=19;fontColor=#000000;entryX=0.5;entryY=0;entryDx=0;entryDy=0;" parent="1" source="8" target="18" edge="1">
                    <mxGeometry relative="1" as="geometry">
                        <mxPoint x="660" y="690" as="targetPoint"/>
                        <Array as="points">
                            <mxPoint x="700" y="545"/>
                        </Array>
                    </mxGeometry>
                </mxCell>
                <mxCell id="51" style="edgeStyle=none;html=1;" parent="1" source="8" target="11" edge="1">
                    <mxGeometry relative="1" as="geometry"/>
                </mxCell>
                <mxCell id="8" value="&lt;font color=&quot;#000000&quot;&gt;n&amp;gt;0&lt;/font&gt;" style="rhombus;whiteSpace=wrap;html=1;fontSize=19;fillColor=#FF9933;rounded=0;gradientColor=#FFFF33;" parent="1" vertex="1">
                    <mxGeometry x="358" y="480" width="116" height="130" as="geometry"/>
                </mxCell>
                <mxCell id="13" style="edgeStyle=none;html=1;fontSize=19;fontColor=#000000;entryX=0;entryY=0.5;entryDx=0;entryDy=0;exitX=0.5;exitY=1;exitDx=0;exitDy=0;" parent="1" source="35" target="8" edge="1">
                    <mxGeometry relative="1" as="geometry">
                        <mxPoint x="330" y="530" as="targetPoint"/>
                        <Array as="points">
                            <mxPoint x="422" y="1030"/>
                            <mxPoint x="240" y="1030"/>
                            <mxPoint x="240" y="545"/>
                        </Array>
                        <mxPoint x="450" y="1000" as="sourcePoint"/>
                    </mxGeometry>
                </mxCell>
                <mxCell id="37" style="edgeStyle=none;html=1;" parent="1" source="11" target="35" edge="1">
                    <mxGeometry relative="1" as="geometry"/>
                </mxCell>
                <mxCell id="11" value="x=n%10&lt;br&gt;n=n//10" style="rounded=0;whiteSpace=wrap;html=1;fontSize=19;fillColor=#330033;gradientColor=#990099;" parent="1" vertex="1">
                    <mxGeometry x="348" y="680" width="142" height="70" as="geometry"/>
                </mxCell>
                <mxCell id="17" value="&lt;font color=&quot;#ffffff&quot; style=&quot;font-size: 26px&quot;&gt;Falso&lt;/font&gt;" style="text;html=1;strokeColor=none;fillColor=#660000;align=center;verticalAlign=middle;whiteSpace=wrap;rounded=0;fontSize=19;fontColor=#000000;gradientColor=#FF3333;" parent="1" vertex="1">
                    <mxGeometry x="500" y="490" width="120" height="40" as="geometry"/>
                </mxCell>
                <mxCell id="19" style="edgeStyle=none;html=1;entryX=1;entryY=0.5;entryDx=0;entryDy=0;fontSize=19;fontColor=#FFFFFF;" parent="1" source="18" target="3" edge="1">
                    <mxGeometry relative="1" as="geometry">
                        <Array as="points">
                            <mxPoint x="700" y="1140"/>
                        </Array>
                    </mxGeometry>
                </mxCell>
                <mxCell id="18" value="&lt;font style=&quot;font-size: 19px&quot;&gt;s&lt;/font&gt;" style="shape=document;whiteSpace=wrap;html=1;boundedLbl=1;fontSize=26;fontColor=#FFFFFF;fillColor=#1A1A1A;gradientColor=#006666;strokeColor=default;" parent="1" vertex="1">
                    <mxGeometry x="640" y="760" width="120" height="80" as="geometry"/>
                </mxCell>
                <mxCell id="20" value="&lt;font color=&quot;#ffffff&quot; style=&quot;font-size: 26px&quot;&gt;Verdadero&lt;/font&gt;" style="text;html=1;strokeColor=none;fillColor=#1A3300;align=center;verticalAlign=middle;whiteSpace=wrap;rounded=0;fontSize=19;fontColor=#000000;gradientColor=#00CC00;" parent="1" vertex="1">
                    <mxGeometry x="248.5" y="600" width="140" height="40" as="geometry"/>
                </mxCell>
                <mxCell id="33" style="edgeStyle=none;html=1;" parent="1" source="31" target="8" edge="1">
                    <mxGeometry relative="1" as="geometry"/>
                </mxCell>
                <mxCell id="31" value="s=0" style="rounded=0;whiteSpace=wrap;html=1;fontSize=19;fillColor=#330033;gradientColor=#990099;" parent="1" vertex="1">
                    <mxGeometry x="354" y="380" width="118" height="60" as="geometry"/>
                </mxCell>
                <mxCell id="39" style="edgeStyle=none;html=1;" parent="1" source="35" edge="1">
                    <mxGeometry relative="1" as="geometry">
                        <mxPoint x="418" y="970" as="targetPoint"/>
                        <Array as="points">
                            <mxPoint x="308" y="865"/>
                            <mxPoint x="308" y="970"/>
                        </Array>
                    </mxGeometry>
                </mxCell>
                <mxCell id="41" style="edgeStyle=none;html=1;entryX=0.5;entryY=0;entryDx=0;entryDy=0;" parent="1" source="35" target="40" edge="1">
                    <mxGeometry relative="1" as="geometry">
                        <Array as="points">
                            <mxPoint x="548" y="865"/>
                        </Array>
                    </mxGeometry>
                </mxCell>
                <mxCell id="35" value="&lt;font color=&quot;#000000&quot;&gt;n&amp;gt;0&lt;/font&gt;" style="rhombus;whiteSpace=wrap;html=1;fontSize=19;fillColor=#FF9933;rounded=0;gradientColor=#FFFF33;" parent="1" vertex="1">
                    <mxGeometry x="360" y="800" width="116" height="130" as="geometry"/>
                </mxCell>
                <mxCell id="42" style="edgeStyle=none;html=1;" parent="1" source="40" edge="1">
                    <mxGeometry relative="1" as="geometry">
                        <mxPoint x="420" y="970" as="targetPoint"/>
                        <Array as="points">
                            <mxPoint x="548" y="970"/>
                        </Array>
                    </mxGeometry>
                </mxCell>
                <mxCell id="40" value="s=s+1" style="rounded=0;whiteSpace=wrap;html=1;fontSize=19;fillColor=#330033;gradientColor=#990099;" parent="1" vertex="1">
                    <mxGeometry x="475" y="900" width="140" height="50" as="geometry"/>
                </mxCell>
                <mxCell id="43" value="&lt;font color=&quot;#ffffff&quot; style=&quot;font-size: 26px&quot;&gt;Verdadero&lt;/font&gt;" style="text;html=1;strokeColor=none;fillColor=#1A3300;align=center;verticalAlign=middle;whiteSpace=wrap;rounded=0;fontSize=19;fontColor=#000000;gradientColor=#00CC00;" parent="1" vertex="1">
                    <mxGeometry x="475" y="800" width="140" height="40" as="geometry"/>
                </mxCell>
                <mxCell id="44" value="&lt;font color=&quot;#ffffff&quot; style=&quot;font-size: 26px&quot;&gt;Falso&lt;/font&gt;" style="text;html=1;strokeColor=none;fillColor=#660000;align=center;verticalAlign=middle;whiteSpace=wrap;rounded=0;fontSize=19;fontColor=#000000;gradientColor=#FF3333;" parent="1" vertex="1">
                    <mxGeometry x="258.5" y="790" width="120" height="40" as="geometry"/>
                </mxCell>
            </root>
        </mxGraphModel>
    </diagram>
</mxfile>